<?xml version="1.0" encoding="utf-8"?>
<!-- Generator: Adobe Illustrator 16.0.3, SVG Export Plug-In . SVG Version: 6.00 Build 0)  -->
<!DOCTYPE svg PUBLIC "-//W3C//DTD SVG 1.1//EN" "http://www.w3.org/Graphics/SVG/1.1/DTD/svg11.dtd">
<svg version="1.1" id="Layer_1" xmlns="http://www.w3.org/2000/svg" xmlns:xlink="http://www.w3.org/1999/xlink" x="0px" y="0px"
	 width="205.364px" height="70px" viewBox="5.82 -0.25 205.364 70" enable-background="new 5.82 -0.25 205.364 70"
	 xml:space="preserve">
<g>
	<g>
		<path fill="#0E0F08" d="M167.075,45.689c0,5.865,4.756,10.623,10.624,10.623c5.867,0,10.623-4.758,10.623-10.623
			c0-5.869-4.756-10.628-10.623-10.628C171.831,35.062,167.075,39.82,167.075,45.689z M205.275,57.021h-8.346l1.733,4.302h-43.597
			l22.023-44.688l3.145,6.163h8.154L177.025-0.25l-34.543,69.661h68.701L205.275,57.021z"/>
		<path fill="#289448" d="M177.699,37.848c-4.334,0-7.84,3.51-7.84,7.842c0,4.33,3.506,7.842,7.84,7.842
			c4.332,0,7.841-3.512,7.841-7.842C185.54,41.355,182.031,37.848,177.699,37.848z M197.223,50.712
			c0.139-0.159,3.342-3.741,3.342-3.741h-2.471c0,0-1.927,2.143-2.309,2.563c0-0.531,0-2.563,0-2.563h-2.041v8.344h2.041
			c0,0,0-2.723,0-3.336c0.4,0.506,2.648,3.336,2.648,3.336h2.42C200.854,55.314,197.352,50.882,197.223,50.712z M194.594,44.037
			h1.916v-8.348h-1.602c0,0-2.646,4.226-3.068,4.896c0-0.771,0-4.896,0-4.896h-1.917v8.348h1.644c0,0,2.607-4.077,3.027-4.732
			C194.594,40.061,194.594,44.037,194.594,44.037z M192.217,34.233h1.694v-2.92c0,0-0.759,0-0.904,0
			c-0.063-0.168-2.491-6.63-2.491-6.63h-1.676c0,0-2.418,6.462-2.484,6.63c-0.143,0-0.897,0-0.897,0v2.92h1.694c0,0,0-0.997,0-1.208
			h5.063C192.217,33.236,192.217,34.233,192.217,34.233z M188.186,31.313c0.114-0.307,1.297-3.434,1.504-3.976
			c0.203,0.542,1.385,3.669,1.5,3.976H188.186z"/>
	</g>
	<path fill="#289448" d="M137.859,44.537c-1.002,0-1.51-0.456-1.51-1.317c0-0.582,0.313-2.442,2.299-2.442h1.213l-0.791,3.761
		L137.859,44.537L137.859,44.537z M137.49,46.418h1.178l-1.107,5.164h2.405l2.71-12.688h-4.642c-2.354,0-4.166,2.284-4.166,4.709
		c0,1.144,0.46,2.094,1.338,2.531l-3.62,5.446h2.617L137.49,46.418z M127.909,61.086c0-0.583,0.317-2.443,2.302-2.443h1.214
		l-0.793,3.76h-1.213C128.419,62.4,127.909,61.945,127.909,61.086 M126.768,64.004l-3.621,5.446h2.619l3.287-5.165h1.174
		l-1.104,5.165h2.405l2.705-12.688h-4.639c-2.354,0-4.164,2.283-4.164,4.711C125.43,62.612,125.887,63.563,126.768,64.004
		 M126.59,46.398l2.319-5.904h0.09l-0.28,5.904H126.59z M125.887,48.281h2.725l-0.106,3.301h2.603L131,38.895h-3.23l-5.924,12.688
		h2.582L125.887,48.281z M116.533,56.763l-2.706,12.688h2.603l5.483-9.208h0.017c-0.492,1.141-0.824,2.479-1.248,4.412l-1.021,4.796
		h2.253l2.704-12.688h-2.602l-5.482,9.225h-0.02c0.461-1.053,0.934-2.971,1.25-4.482l1.021-4.742L116.533,56.763L116.533,56.763z
		 M106.773,56.763l-2.705,12.688h2.41l1.246-5.87h3.182l-1.248,5.87h2.406l2.705-12.688h-2.404l-1.037,4.885h-3.182l1.037-4.886
		H106.773z M106.334,49.773l0.861-4.061h1.389c0.703,0,1.057,0.51,1.057,1.317c0,0.387-0.177,2.741-1.914,2.741h-1.393V49.773z
		 M106.25,38.895l-2.707,12.688h4.637c2.813,0,3.975-3.301,3.975-4.918c0-1.513-0.862-2.884-2.514-2.884h-2.021l1.037-4.887H106.25z
		 M99.091,40.83h2.566l-2.286,10.752h2.408l2.706-12.688h-7.362l-1.282,6.082c-0.985,4.604-1.369,4.987-2.108,4.987
		c-0.281,0-0.6-0.034-0.757-0.086l-0.368,1.772c0.422,0.125,0.86,0.158,1.425,0.158c2.021,0,3.127-1.88,4.023-6.112L99.091,40.83z
		 M98.546,64.268l2.32-5.906h0.086l-0.281,5.906H98.546z M99.724,56.763L93.801,69.45h2.585l1.458-3.304h2.725l-0.107,3.304h2.601
		l-0.104-12.688L99.724,56.763L99.724,56.763z M87.54,56.763L84.833,69.45h2.409l2.281-10.755h3.182L90.423,69.45h2.407
		l2.706-12.688L87.54,56.763L87.54,56.763z M76.532,48.122h-0.015c0.455-1.054,0.93-2.972,1.247-4.481l1.021-4.746h-2.253
		l-2.706,12.688h2.603l5.48-9.206h0.017c-0.49,1.143-0.823,2.475-1.247,4.409l-1.018,4.797h2.248l2.708-12.688h-2.603L76.532,48.122
		z M56.967,40.83h2.987l-2.286,10.752h2.409L62.36,40.83h2.988l0.421-1.936h-8.381L56.967,40.83z M68.18,44.537l0.791-3.76h1.215
		c0.983,0,1.476,0.455,1.476,1.265c0,1.53-0.914,2.495-2.267,2.495H68.18z M66.97,38.895l-2.705,12.688h2.407l1.105-5.164h2.108
		c2.356,0,4.289-2.304,4.289-4.782c0-1.58-0.933-2.74-2.655-2.74H66.97V38.895z M87.628,46.398l2.318-5.904h0.089l-0.281,5.904
		H87.628z M88.806,38.895L82.88,51.582h2.585l1.46-3.301h2.723l-0.104,3.301h2.602L92.04,38.895H88.806z M74.707,56.763L72,69.45
		h2.249l2.424-11.476h0.018V69.45h1.706l4.85-11.49h0.015l-2.439,11.49h2.248l2.705-12.688h-3.848l-3.407,8.172v-8.172
		L74.707,56.763L74.707,56.763z M65.28,66.531c0-0.365,0.035-0.473,1.196-5.938c0.281-1.353,0.985-2.125,2.127-2.125
		c0.808,0,1.231,0.509,1.231,1.372c0,0.387-0.019,0.49-1.18,5.938c-0.278,1.337-1.018,2.041-2.055,2.041
		C65.704,67.816,65.28,67.359,65.28,66.531 M63.947,60.876c-1.072,5.128-1.144,5.394-1.144,6.026c0,2.106,1.387,2.848,3.391,2.848
		c2.443,0,4.307-1.039,4.991-4.271c1.09-5.166,1.143-5.481,1.143-6.112c0-2.093-1.302-2.832-3.321-2.832
		C66.599,56.533,64.629,57.678,63.947,60.876 M55.752,56.763L53.045,69.45h2.407l0.809-3.813l1.214-1.25l1.037,5.063h2.687
		l-1.792-7.187l4.395-5.502h-2.723l-4.095,5.502l1.176-5.502L55.752,56.763L55.752,56.763z M13.904,51.582l2.705-12.688h-2.6
		l-5.483,9.228H8.51c0.454-1.054,0.93-2.972,1.247-4.481l1.018-4.746h-2.25L5.82,51.582h2.602l5.482-9.206h0.019
		c-0.493,1.144-0.825,2.476-1.25,4.409l-1.018,4.797H13.904z M23.662,51.582l2.706-12.688H23.96l-1.037,4.886h-3.182l1.037-4.886
		h-2.405l-2.708,12.688h2.408l1.247-5.868h3.181l-1.248,5.868H23.662z M34.351,40.83l-1.878,8.82h-3.568
		c1.072-1.582,1.792-3.021,2.405-5.939l0.616-2.881H34.351z M34.879,49.65l2.286-10.756h-7.206l-0.843,3.955
		c-0.737,3.496-1.354,4.938-2.603,6.801H25.76l-0.952,4.479h2.32l0.544-2.548h5.256l-0.547,2.548h2.321l0.948-4.479H34.879z
		 M42.002,49.156l5.624-10.262h-2.637l-3.391,6.73l-0.512-6.73H38.38l1.337,10.035c-0.386,0.721-0.808,1.016-1.284,1.016
		c-0.317,0-0.509-0.103-0.632-0.139l-0.402,1.844c0.402,0.145,0.859,0.231,1.422,0.231C39.999,51.883,40.894,51.158,42.002,49.156
		 M52.55,38.668c-2.619,0-4.253,1.387-4.885,4.357c-1.091,5.131-1.162,5.481-1.162,6.099c0,1.581,0.758,2.759,3.198,2.759
		c3.007,0,4.359-1.938,4.85-4.814h-2.405c-0.37,2.337-1.089,2.878-2.056,2.878c-0.756,0-1.106-0.296-1.106-1.103
		c0-0.439,0.176-1.339,1.211-6.1c0.351-1.616,0.896-2.145,1.917-2.145c0.754,0,1.106,0.299,1.106,1.09
		c0,0.283-0.052,0.632-0.21,1.336h2.405c0.229-1.019,0.264-1.354,0.264-1.688C55.677,39.65,54.605,38.668,52.55,38.668
		 M62.587,22.962l-1.879,8.822H57.14c1.072-1.581,1.794-3.021,2.408-5.94l0.615-2.882H62.587z M63.115,31.784l2.284-10.755h-7.205
		l-0.842,3.953c-0.737,3.499-1.354,4.938-2.601,6.802h-0.757l-0.948,4.479h2.318l0.545-2.547h5.253l-0.545,2.547h2.321l0.947-4.479
		H63.115z M72.241,24.105c0,0.385-0.018,0.491-1.175,5.94c-0.285,1.335-1.022,2.036-2.058,2.036c-0.895,0-1.318-0.456-1.318-1.282
		c0-0.368,0.035-0.474,1.195-5.94c0.281-1.354,0.983-2.125,2.126-2.125C71.82,22.734,72.241,23.243,72.241,24.105 M73.594,29.744
		c1.092-5.165,1.143-5.481,1.143-6.115c0-2.091-1.303-2.83-3.32-2.83c-2.408,0-4.376,1.143-5.062,4.343
		c-1.072,5.13-1.143,5.396-1.143,6.027c0,2.108,1.39,2.848,3.392,2.848C71.046,34.017,72.909,32.977,73.594,29.744 M82.405,33.717
		l2.704-12.688h-2.407l-1.037,4.885h-3.181l1.037-4.885h-2.408l-2.707,12.688h2.408l1.247-5.871h3.184l-1.252,5.871H82.405z
		 M87.821,27.846h1.386c0.706,0,1.057,0.509,1.057,1.32c0,0.386-0.177,2.741-1.913,2.741H86.96L87.821,27.846z M93.215,22.839
		l0.387-1.81h-6.727l-2.707,12.688h4.639c2.81,0,3.972-3.304,3.972-4.921c0-1.512-0.862-2.882-2.515-2.882h-2.021l0.651-3.075
		H93.215z M99.583,28.533h-2.127l2.318-5.906h0.09L99.583,28.533z M99.371,33.717h2.601l-0.104-12.688h-3.234L92.71,33.717h2.583
		l1.46-3.304h2.724L99.371,33.717z M112.486,25.16c0.229-1.02,0.264-1.354,0.264-1.686c0-1.689-1.072-2.675-3.13-2.675
		c-2.616,0-4.252,1.39-4.884,4.361c-1.09,5.129-1.161,5.479-1.161,6.098c0,1.58,0.755,2.759,3.198,2.759
		c3.004,0,4.356-1.936,4.852-4.817h-2.408c-0.367,2.337-1.092,2.882-2.057,2.882c-0.754,0-1.105-0.297-1.105-1.105
		c0-0.438,0.174-1.337,1.211-6.096c0.354-1.617,0.895-2.145,1.918-2.145c0.754,0,1.104,0.298,1.104,1.09
		c0,0.28-0.05,0.631-0.208,1.335L112.486,25.16L112.486,25.16z M115.584,38.895l-2.703,12.688h2.405l1.247-5.868h3.181l-1.248,5.868
		h2.407l2.705-12.688h-2.404l-1.037,4.887h-3.183l1.038-4.887H115.584z M121.824,25.16c0.227-1.02,0.261-1.354,0.261-1.686
		c0-1.689-1.071-2.675-3.127-2.675c-2.618,0-4.253,1.39-4.886,4.361c-1.092,5.129-1.16,5.479-1.16,6.098
		c0,1.58,0.758,2.759,3.199,2.759c3.004,0,4.359-1.936,4.85-4.817h-2.404c-0.371,2.337-1.092,2.882-2.059,2.882
		c-0.756,0-1.109-0.297-1.109-1.105c0-0.438,0.178-1.337,1.215-6.096c0.352-1.617,0.896-2.145,1.916-2.145
		c0.758,0,1.104,0.298,1.104,1.09c0,0.28-0.052,0.631-0.211,1.335L121.824,25.16L121.824,25.16z M128.012,26.53l4.395-5.501h-2.723
		l-4.095,5.501l1.177-5.501h-2.408l-2.703,12.688h2.406l0.808-3.816l1.212-1.246l1.035,5.063h2.689L128.012,26.53z M137.156,28.533
		h-2.125l2.316-5.906h0.09L137.156,28.533z M136.945,33.717h2.6l-0.104-12.688h-3.233l-5.922,12.688h2.583l1.46-3.304h2.722
		L136.945,33.717z M148.301,22.908l-0.789,3.76h-1.213c-1.003,0-1.512-0.458-1.512-1.316c0-0.581,0.318-2.444,2.301-2.444H148.301z
		 M151.109,21.029h-4.637c-2.355,0-4.164,2.283-4.164,4.709c0,1.143,0.457,2.093,1.336,2.532l-3.621,5.446h2.617l3.287-5.168h1.178
		l-1.106,5.168h2.405L151.109,21.029z"/>
</g>
</svg>
